<?xml version="1.0" encoding="UTF-8" standalone="no"?>
<!-- Created with Inkscape (http://www.inkscape.org/) -->

<svg
   xmlns:dc="http://purl.org/dc/elements/1.1/"
   xmlns:cc="http://creativecommons.org/ns#"
   xmlns:rdf="http://www.w3.org/1999/02/22-rdf-syntax-ns#"
   xmlns:svg="http://www.w3.org/2000/svg"
   xmlns="http://www.w3.org/2000/svg"
   xmlns:xlink="http://www.w3.org/1999/xlink"
   xmlns:sodipodi="http://sodipodi.sourceforge.net/DTD/sodipodi-0.dtd"
   xmlns:inkscape="http://www.inkscape.org/namespaces/inkscape"
   id="svg2"
   version="1.1"
   inkscape:version="0.48.1 r9760"
   width="125"
   height="95"
   sodipodi:docname="d-logo-7.svg"
   inkscape:export-filename="/home/james/dev/d-brand/d-logo-7.png"
   inkscape:export-xdpi="300.23999"
   inkscape:export-ydpi="300.23999">
  <metadata
     id="metadata8">
    <rdf:RDF>
      <cc:Work
         rdf:about="">
        <dc:format>image/svg+xml</dc:format>
        <dc:type
           rdf:resource="http://purl.org/dc/dcmitype/StillImage" />
        <dc:title></dc:title>
      </cc:Work>
    </rdf:RDF>
  </metadata>
  <defs
     id="defs6">
    <linearGradient
       inkscape:collect="always"
       id="linearGradient5686">
      <stop
         style="stop-color:#000000;stop-opacity:1;"
         offset="0"
         id="stop5688" />
      <stop
         style="stop-color:#000000;stop-opacity:0;"
         offset="1"
         id="stop5690" />
    </linearGradient>
    <linearGradient
       id="linearGradient5659">
      <stop
         style="stop-color:#e16813;stop-opacity:1;"
         offset="0"
         id="stop5661" />
      <stop
         id="stop5698"
         offset="1"
         style="stop-color:#ecb09e;stop-opacity:0.10769231;" />
    </linearGradient>
    <linearGradient
       id="linearGradient4256">
      <stop
         id="stop4258"
         offset="0"
         style="stop-color:#ffffff;stop-opacity:0;" />
      <stop
         style="stop-color:#ffffff;stop-opacity:1;"
         offset="0.5"
         id="stop4262" />
      <stop
         id="stop4260"
         offset="1"
         style="stop-color:#ffffff;stop-opacity:0;" />
    </linearGradient>
    <linearGradient
       id="linearGradient4248">
      <stop
         style="stop-color:#ffffff;stop-opacity:1;"
         offset="0"
         id="stop4250" />
      <stop
         style="stop-color:#ffffff;stop-opacity:0;"
         offset="1"
         id="stop4252" />
    </linearGradient>
    <radialGradient
       inkscape:collect="always"
       xlink:href="#linearGradient5659"
       id="radialGradient5665"
       cx="-547.36859"
       cy="-45.647995"
       fx="-547.36859"
       fy="-45.647995"
       r="66.974625"
       gradientUnits="userSpaceOnUse"
       gradientTransform="matrix(1.23272,0.19354838,-0.13647996,1.0098052,121.1536,106.38989)" />
    <radialGradient
       inkscape:collect="always"
       xlink:href="#linearGradient5659"
       id="radialGradient5675"
       gradientUnits="userSpaceOnUse"
       gradientTransform="matrix(1.23272,0.19354838,-0.13647996,1.0098052,121.1536,106.38989)"
       cx="-547.36859"
       cy="-45.647995"
       fx="-547.36859"
       fy="-45.647995"
       r="66.974625" />
    <radialGradient
       inkscape:collect="always"
       xlink:href="#linearGradient5659"
       id="radialGradient5681"
       gradientUnits="userSpaceOnUse"
       gradientTransform="matrix(1.23272,0.19354838,-0.13647996,1.0098052,121.1536,106.38989)"
       cx="-547.36859"
       cy="-45.647995"
       fx="-547.36859"
       fy="-45.647995"
       r="66.974625" />
    <linearGradient
       inkscape:collect="always"
       xlink:href="#linearGradient5686"
       id="linearGradient5692"
       x1="-553.5968"
       y1="-31.326836"
       x2="-582.91113"
       y2="-30.043085"
       gradientUnits="userSpaceOnUse"
       gradientTransform="matrix(1.7091503,-0.8964284,0.8964284,1.7091503,453.96488,-477.50925)" />
  </defs>
  <sodipodi:namedview
     pagecolor="#ffffff"
     bordercolor="#666666"
     borderopacity="1"
     objecttolerance="10"
     gridtolerance="10"
     guidetolerance="10"
     inkscape:pageopacity="0"
     inkscape:pageshadow="2"
     inkscape:window-width="1920"
     inkscape:window-height="1032"
     id="namedview4"
     showgrid="false"
     showguides="false"
     inkscape:guide-bbox="true"
     inkscape:snap-global="false"
     inkscape:zoom="3.5263158"
     inkscape:cx="82.25447"
     inkscape:cy="29.441849"
     inkscape:window-x="0"
     inkscape:window-y="0"
     inkscape:window-maximized="1"
     inkscape:current-layer="svg2">
    <sodipodi:guide
       orientation="1,0"
       position="22.659079,142.17068"
       id="guide3797" />
    <sodipodi:guide
       orientation="0,1"
       position="22.659079,206.33798"
       id="guide3799" />
    <sodipodi:guide
       orientation="0,1"
       position="22.659079,142.17068"
       id="guide3801" />
    <sodipodi:guide
       orientation="-0.70710678,0.70710678"
       position="22.659079,142.17068"
       id="guide3819" />
    <sodipodi:guide
       orientation="1,0"
       position="86.826379,206.33798"
       id="guide3821" />
    <sodipodi:guide
       orientation="1,0"
       position="125.62687,171.85075"
       id="guide3823" />
  </sodipodi:namedview>
  <rect
     style="fill:#ffffff;fill-opacity:1;stroke:none"
     id="rect4081"
     width="133.28358"
     height="102.08956"
     x="-1.2895819"
     y="-1.7694619" />
  <text
     xml:space="preserve"
     style="font-size:40px;font-style:normal;font-weight:normal;line-height:125%;letter-spacing:0px;word-spacing:0px;fill:#000000;fill-opacity:1;stroke:none;font-family:Sans"
     x="21.656464"
     y="-32.331989"
     id="text3793"
     sodipodi:linespacing="125%"><tspan
       sodipodi:role="line"
       id="tspan3795"
       x="21.656464"
       y="-32.331989" /></text>
  <text
     xml:space="preserve"
     style="font-size:93.5201416px;font-style:normal;font-weight:normal;line-height:125%;letter-spacing:0px;word-spacing:0px;fill:#a61609;fill-opacity:1;stroke:none;font-family:Sans"
     x="31.013365"
     y="87.761063"
     id="text4686"
     sodipodi:linespacing="125%"
     transform="scale(1.1186083,0.89396798)"><tspan
       sodipodi:role="line"
       id="tspan4688"
       x="31.013365"
       y="87.761063">d</tspan></text>
  <g
     style="fill:#a61609;fill-opacity:1;stroke:none"
     transform="matrix(0.66525025,0,0,0.66525025,120.30292,41.296683)"
     id="g4690">
    <path
       sodipodi:type="arc"
       style="fill:#a61609;fill-opacity:1;stroke:none"
       id="path4692"
       sodipodi:cx="87.201492"
       sodipodi:cy="34.738808"
       sodipodi:rx="15.171641"
       sodipodi:ry="15.171641"
       d="m 102.37313,34.738808 c 0,8.379066 -6.792572,15.171641 -15.171638,15.171641 -8.379066,0 -15.171641,-6.792575 -15.171641,-15.171641 0,-8.379066 6.792575,-15.171642 15.171641,-15.171642 8.379066,0 15.171638,6.792576 15.171638,15.171642 z"
       transform="matrix(1.0186916,0,0,1.0186916,-206.38801,-21.532203)" />
  </g>
  <path
     sodipodi:type="arc"
     style="fill:#ffffff;fill-opacity:1;stroke:none"
     id="path4694"
     sodipodi:cx="12.833461"
     sodipodi:cy="-39.350288"
     sodipodi:rx="6.3164687"
     sodipodi:ry="6.3164687"
     d="m 19.14993,-39.350288 a 6.3164687,6.3164687 0 1 1 -12.6329379,0 6.3164687,6.3164687 0 1 1 12.6329379,0 z"
     transform="matrix(1.2055432,0,0,1.2055432,27.683938,97.639306)" />
  <g
     id="g4696"
     transform="matrix(0.32792181,0,0,0.32792181,70.497869,30.264486)"
     style="fill:#a61609;fill-opacity:1;stroke:none">
    <path
       transform="matrix(1.0186916,0,0,1.0186916,-206.38801,-21.532203)"
       d="m 102.37313,34.738808 c 0,8.379066 -6.792572,15.171641 -15.171638,15.171641 -8.379066,0 -15.171641,-6.792575 -15.171641,-15.171641 0,-8.379066 6.792575,-15.171642 15.171641,-15.171642 8.379066,0 15.171638,6.792576 15.171638,15.171642 z"
       sodipodi:ry="15.171641"
       sodipodi:rx="15.171641"
       sodipodi:cy="34.738808"
       sodipodi:cx="87.201492"
       id="path4698"
       style="fill:#a61609;fill-opacity:1;stroke:none"
       sodipodi:type="arc" />
  </g>
  <path
     transform="matrix(0.59424839,0,0,0.59424839,24.843196,58.037454)"
     d="m 19.14993,-39.350288 a 6.3164687,6.3164687 0 1 1 -12.6329379,0 6.3164687,6.3164687 0 1 1 12.6329379,0 z"
     sodipodi:ry="6.3164687"
     sodipodi:rx="6.3164687"
     sodipodi:cy="-39.350288"
     sodipodi:cx="12.833461"
     id="path4700"
     style="fill:#ffffff;fill-opacity:1;stroke:none"
     sodipodi:type="arc" />
  <path
     style="fill:#a61609;fill-opacity:1;stroke:none"
     d="m -19.604484,-30.540806 c 0.16665,-0.02274 0.307949,-0.102678 0.433814,-0.194724 l -0.189762,-0.312894 c -0.08702,0.06986 -0.17892,0.126057 -0.299176,0.14247 -0.347974,0.04749 -0.672577,-0.20673 -0.723634,-0.544945 -0.04008,-0.265497 0.103496,-0.5034 0.333755,-0.621498 l -0.184751,-0.279699 c -0.343155,0.187549 -0.554811,0.57336 -0.493115,0.982041 0.07992,0.529379 0.587945,0.902255 1.122869,0.829249 z"
     id="path4708"
     inkscape:connector-curvature="0" />
  <path
     id="path4718"
     d="m -19.786719,-32.215123 c -0.110776,0.0159 -0.204387,0.06973 -0.287669,0.131565 l 0.127863,0.207327 c 0.05755,-0.0469 0.118413,-0.08471 0.198347,-0.09619 0.231301,-0.03319 0.448585,0.134463 0.484281,0.359276 0.02801,0.17648 -0.06631,0.335439 -0.218918,0.415082 l 0.12436,0.185261 c 0.227383,-0.126372 0.366255,-0.384067 0.323124,-0.65572 -0.05586,-0.351883 -0.395811,-0.597656 -0.751379,-0.546617 z"
     style="fill:#a61609;fill-opacity:1;stroke:none"
     inkscape:connector-curvature="0" />
  <path
     style="fill:#a61609;fill-opacity:1;stroke:none"
     d="m -15.938298,-27.81603 c 0.225061,-0.03071 0.415886,-0.138666 0.585866,-0.262975 l -0.256273,-0.422563 c -0.117521,0.09435 -0.241632,0.17024 -0.404038,0.192406 -0.469939,0.06414 -0.908316,-0.27919 -0.977269,-0.735949 -0.05413,-0.358554 0.139772,-0.679843 0.450737,-0.839334 l -0.249506,-0.377734 c -0.463432,0.253285 -0.749273,0.774323 -0.665953,1.326248 0.107932,0.714927 0.794021,1.218496 1.516436,1.119901 z"
     id="path4708-3"
     inkscape:connector-curvature="0" />
  <path
     id="path4718-7"
     d="m -16.184406,-30.077197 c -0.149604,0.02147 -0.276025,0.09417 -0.388498,0.177679 l 0.172679,0.279995 c 0.07772,-0.06334 0.159917,-0.114401 0.267868,-0.129904 0.312372,-0.04482 0.605815,0.181592 0.654022,0.485202 0.03783,0.238337 -0.08955,0.453011 -0.295649,0.560569 l 0.167949,0.250195 c 0.307081,-0.170665 0.494627,-0.518683 0.436379,-0.88555 -0.07544,-0.475219 -0.534543,-0.807136 -1.014738,-0.738207 z"
     style="fill:#a61609;fill-opacity:1;stroke:none"
     inkscape:connector-curvature="0" />
  <path
     style="fill:#a61609;fill-opacity:1;stroke:none"
     d="m -19.635318,-27.387457 c 0.16665,-0.02274 0.307949,-0.102678 0.433814,-0.194724 l -0.189762,-0.312894 c -0.08702,0.06986 -0.17892,0.126057 -0.299176,0.14247 -0.347974,0.04749 -0.672577,-0.20673 -0.723634,-0.544945 -0.04008,-0.265497 0.103496,-0.5034 0.333755,-0.621498 l -0.184751,-0.279699 c -0.343155,0.187549 -0.554811,0.57336 -0.493115,0.982041 0.07992,0.529379 0.587945,0.902255 1.122869,0.829249 z"
     id="path4708-6"
     inkscape:connector-curvature="0" />
  <path
     id="path4718-3"
     d="m -19.817553,-29.061774 c -0.110776,0.0159 -0.204387,0.06973 -0.287669,0.131565 l 0.127863,0.207327 c 0.05755,-0.0469 0.118413,-0.08471 0.198347,-0.09619 0.231301,-0.03319 0.448585,0.134463 0.484281,0.359276 0.02801,0.17648 -0.06631,0.335439 -0.218918,0.415082 l 0.12436,0.185261 c 0.227383,-0.126372 0.366255,-0.384067 0.323124,-0.65572 -0.05586,-0.351883 -0.395811,-0.597656 -0.751379,-0.546617 z"
     style="fill:#a61609;fill-opacity:1;stroke:none"
     inkscape:connector-curvature="0" />
  <path
     style="fill:#ffffff;fill-opacity:1;stroke:none"
     d="m -19.950904,-28.983032 c -0.236169,0.106224 -0.394776,0.352024 -0.375,0.625 0.02562,0.353595 0.330597,0.645769 0.6875,0.625 0.111188,-0.0065 0.224684,-0.07068 0.3125,-0.125 l -0.125,-0.1875 0,-0.03125 c 0.08694,-0.07577 0.15625,-0.157907 0.15625,-0.28125 0,-0.228413 -0.174376,-0.40625 -0.40625,-0.40625 -0.107412,0 -0.207001,0.05964 -0.28125,0.125 0.0405,-0.04297 0.06799,-0.101139 0.125,-0.125 l -0.09375,-0.21875 z"
     id="path4750"
     inkscape:connector-curvature="0" />
</svg>
