<?xml version="1.0" encoding="UTF-8" standalone="no"?>
<!-- Created with Inkscape (http://www.inkscape.org/) -->

<svg
   xmlns:dc="http://purl.org/dc/elements/1.1/"
   xmlns:cc="http://creativecommons.org/ns#"
   xmlns:rdf="http://www.w3.org/1999/02/22-rdf-syntax-ns#"
   xmlns:svg="http://www.w3.org/2000/svg"
   xmlns="http://www.w3.org/2000/svg"
   xmlns:xlink="http://www.w3.org/1999/xlink"
   xmlns:sodipodi="http://sodipodi.sourceforge.net/DTD/sodipodi-0.dtd"
   xmlns:inkscape="http://www.inkscape.org/namespaces/inkscape"
   width="132.5"
   height="127.49999"
   id="svg4355"
   version="1.1"
   inkscape:version="0.48.1 r9760"
   sodipodi:docname="d-logo-1.svg"
   inkscape:export-filename="/home/james/dev/d-brand/d-logo-1.png"
   inkscape:export-xdpi="300"
   inkscape:export-ydpi="300">
  <defs
     id="defs4357">
    <linearGradient
       inkscape:collect="always"
       id="linearGradient5702">
      <stop
         style="stop-color:#ffffff;stop-opacity:1;"
         offset="0"
         id="stop5704" />
      <stop
         style="stop-color:#ffffff;stop-opacity:0;"
         offset="1"
         id="stop5706" />
    </linearGradient>
    <linearGradient
       gradientTransform="translate(926.02598,634.13622)"
       inkscape:collect="always"
       xlink:href="#linearGradient4256"
       id="linearGradient4254"
       x1="-386.31342"
       y1="-13.531192"
       x2="-358.37311"
       y2="-37.068504"
       gradientUnits="userSpaceOnUse" />
    <linearGradient
       id="linearGradient4256">
      <stop
         id="stop4258"
         offset="0"
         style="stop-color:#ffffff;stop-opacity:0;" />
      <stop
         style="stop-color:#ffffff;stop-opacity:1;"
         offset="0.5"
         id="stop4262" />
      <stop
         id="stop4260"
         offset="1"
         style="stop-color:#ffffff;stop-opacity:0;" />
    </linearGradient>
    <linearGradient
       gradientTransform="translate(926.02598,634.13622)"
       inkscape:collect="always"
       xlink:href="#linearGradient4233"
       id="linearGradient4244"
       gradientUnits="userSpaceOnUse"
       x1="-412.31067"
       y1="-29.776117"
       x2="-404.63843"
       y2="-7.5149264" />
    <linearGradient
       inkscape:collect="always"
       id="linearGradient4233">
      <stop
         style="stop-color:#ffffff;stop-opacity:1;"
         offset="0"
         id="stop4235" />
      <stop
         style="stop-color:#ffffff;stop-opacity:0;"
         offset="1"
         id="stop4237" />
    </linearGradient>
    <linearGradient
       gradientTransform="translate(926.02598,634.13622)"
       inkscape:collect="always"
       xlink:href="#linearGradient4137"
       id="linearGradient4143"
       x1="-399.99289"
       y1="13.587736"
       x2="-400.24353"
       y2="-4.9104943"
       gradientUnits="userSpaceOnUse" />
    <linearGradient
       inkscape:collect="always"
       id="linearGradient4137">
      <stop
         style="stop-color:#ffffff;stop-opacity:1;"
         offset="0"
         id="stop4139" />
      <stop
         style="stop-color:#ffffff;stop-opacity:0;"
         offset="1"
         id="stop4141" />
    </linearGradient>
    <linearGradient
       inkscape:collect="always"
       xlink:href="#linearGradient4147"
       id="linearGradient4181"
       gradientUnits="userSpaceOnUse"
       gradientTransform="matrix(0.45261706,-0.10694803,0.10694803,0.45261706,-362.8299,-34.736465)"
       x1="-5.1870198"
       y1="-85.793068"
       x2="40.882904"
       y2="-22.746643" />
    <linearGradient
       inkscape:collect="always"
       id="linearGradient4147">
      <stop
         style="stop-color:#ffffff;stop-opacity:1;"
         offset="0"
         id="stop4149" />
      <stop
         style="stop-color:#ffffff;stop-opacity:0;"
         offset="1"
         id="stop4151" />
    </linearGradient>
    <linearGradient
       inkscape:collect="always"
       xlink:href="#linearGradient4171"
       id="linearGradient4177"
       x1="-387.94031"
       y1="-87.768661"
       x2="-385.67163"
       y2="-58.843285"
       gradientUnits="userSpaceOnUse" />
    <linearGradient
       inkscape:collect="always"
       id="linearGradient4171">
      <stop
         style="stop-color:#ffffff;stop-opacity:1;"
         offset="0"
         id="stop4173" />
      <stop
         style="stop-color:#ffffff;stop-opacity:0;"
         offset="1"
         id="stop4175" />
    </linearGradient>
    <linearGradient
       inkscape:collect="always"
       xlink:href="#linearGradient4186"
       id="linearGradient4197"
       gradientUnits="userSpaceOnUse"
       gradientTransform="matrix(0.38959913,-0.09205764,0.09205764,0.38959913,-360.87029,-39.250257)"
       x1="41.197758"
       y1="-25.212191"
       x2="26.689108"
       y2="-55.536415" />
    <linearGradient
       inkscape:collect="always"
       id="linearGradient4186">
      <stop
         style="stop-color:#ffffff;stop-opacity:0.39922481"
         offset="0"
         id="stop4188" />
      <stop
         style="stop-color:#ffffff;stop-opacity:0;"
         offset="1"
         id="stop4190" />
    </linearGradient>
    <filter
       color-interpolation-filters="sRGB"
       inkscape:collect="always"
       id="filter4351">
      <feGaussianBlur
         inkscape:collect="always"
         stdDeviation="1.0657788"
         id="feGaussianBlur4353" />
    </filter>
    <linearGradient
       inkscape:collect="always"
       xlink:href="#linearGradient5702"
       id="linearGradient5708"
       x1="50.946461"
       y1="-33.459053"
       x2="24.320976"
       y2="-53.010479"
       gradientUnits="userSpaceOnUse" />
  </defs>
  <sodipodi:namedview
     id="base"
     pagecolor="#ffffff"
     bordercolor="#666666"
     borderopacity="1.0"
     inkscape:pageopacity="0.0"
     inkscape:pageshadow="2"
     inkscape:zoom="2.8"
     inkscape:cx="0.22856533"
     inkscape:cy="76.414378"
     inkscape:document-units="px"
     inkscape:current-layer="layer1"
     showgrid="false"
     inkscape:window-width="1920"
     inkscape:window-height="1032"
     inkscape:window-x="0"
     inkscape:window-y="0"
     inkscape:window-maximized="1"
     fit-margin-top="0"
     fit-margin-left="0"
     fit-margin-right="0"
     fit-margin-bottom="0" />
  <metadata
     id="metadata4360">
    <rdf:RDF>
      <cc:Work
         rdf:about="">
        <dc:format>image/svg+xml</dc:format>
        <dc:type
           rdf:resource="http://purl.org/dc/dcmitype/StillImage" />
        <dc:title></dc:title>
      </cc:Work>
    </rdf:RDF>
  </metadata>
  <g
     inkscape:label="Layer 1"
     inkscape:groupmode="layer"
     id="layer1"
     transform="translate(-480.35715,-532.7193)">
    <rect
       style="fill:#ffffff;fill-opacity:1;stroke:none"
       id="rect4599"
       width="132.5"
       height="127.49999"
       x="480.35715"
       y="532.7193" />
    <path
       style="opacity:0.19767444;fill:#000000;fill-opacity:1;stroke:none;filter:url(#filter4351)"
       d="m 567.99239,561.32419 c -0.83394,0.0252 -1.6564,0.11317 -2.5,0.3125 -3.44794,0.81471 -6.22436,2.98614 -7.90625,5.8125 -5.1909,-2.69103 -11.54688,-4.25 -19,-4.25 l -18.75,0 -0.0937,48.125 13.75,0 c -0.15698,-8.72596 -0.57714,-26.89915 -0.3125,-35.5 19.56716,-0.28358 27.62931,4.67197 27.65625,19.84375 0.0245,13.8216 -9.25013,20.25553 -26,20.5625 l 0,0.0312 -0.71875,0 -14.375,0 0,0.0312 c -0.0448,9.7e-4 -0.0801,-9.9e-4 -0.125,0 -6.44696,0.14179 -13.26928,4.58526 -13.3125,12.375 -0.0459,8.27059 6.65253,12.33188 17.25,13.59375 0.77201,0.1459 1.40227,0.24756 1.96875,0.3125 l -5.11386,2.3083 c 0,0 3.11244,0.36998 7.60775,0.091 4.49531,-0.27902 6.44356,1.28825 6.44356,1.28825 0,0 -1.7809,-1.95473 -3.59375,-5.21875 -1.46044,-2.62949 -2.75,-6.09375 -2.75,-6.09375 l -1.15625,4.625 c -1.07589,-0.45845 -2.47688,-0.84962 -4.28125,-1.09375 -9.80426,-1.3265 -10.69182,-11.09752 -2.96875,-11.15625 0.12274,-9.3e-4 0.19043,8.8e-4 0.3125,0 0.74089,0.0652 5.61912,0.46227 18,0.21875 19.28315,-0.37929 35.98321,-12.33675 36.125,-32.1875 0.024,-3.36472 -0.43783,-6.64721 -1.375,-9.75 5.83887,-2.18142 9.28314,-8.40104 7.8125,-14.625 -0.12179,-0.51545 -0.28885,-0.98485 -0.46875,-1.46875 0.0376,0.28604 0.0521,0.56007 0.0625,0.84375 0.012,0.32346 -0.009,0.65036 -0.0312,0.96875 -0.0169,0.23712 -0.0273,0.48559 -0.0625,0.71875 -0.18556,1.22431 -0.64116,2.37007 -1.28125,3.40625 -0.0764,0.12354 -0.1365,0.25521 -0.21875,0.375 -0.24651,0.35911 -0.51635,0.7099 -0.8125,1.03125 -0.0734,0.0795 -0.14244,0.17307 -0.21875,0.25 -0.12879,0.13 -0.26942,0.25263 -0.40625,0.375 -0.0702,0.0628 -0.14643,0.12676 -0.21875,0.1875 -0.37645,0.31547 -0.78963,0.59025 -1.21875,0.84375 -0.18225,0.10731 -0.37145,0.21742 -0.5625,0.3125 -0.62035,0.31058 -1.26424,0.55228 -1.96875,0.71875 -0.61189,0.14458 -1.23887,0.23173 -1.84375,0.25 -0.90732,0.0274 -1.806,-0.0812 -2.65625,-0.3125 -0.27872,-0.0758 -0.54425,-0.175 -0.8125,-0.28125 -0.13482,-0.0511 -0.2742,-0.099 -0.40625,-0.15625 -0.0421,-0.0192 -0.0832,-0.0427 -0.125,-0.0625 -0.35055,-0.15847 -0.70388,-0.36158 -1.03125,-0.5625 -0.7525,-0.46184 -1.4379,-1.02403 -2.03125,-1.6875 -0.39159,-0.43787 -0.72744,-0.89197 -1.03125,-1.40625 -0.005,-0.008 0.005,-0.0236 0,-0.0312 -0.15211,-0.25737 -0.31015,-0.50654 -0.4375,-0.78125 -0.2544,-0.54909 -0.44917,-1.13811 -0.59375,-1.75 -0.14707,-0.62243 -0.23355,-1.2287 -0.25,-1.84375 -0.01,-0.29211 0.0124,-0.58662 0.0312,-0.875 7.3e-4,-0.0105 -7.7e-4,-0.0207 0,-0.0312 0.0199,-0.28797 0.0457,-0.56012 0.0937,-0.84375 0.002,-0.01 -0.002,-0.0213 0,-0.0312 0.049,-0.29112 0.11091,-0.56088 0.1875,-0.84375 0.15168,-0.55759 0.37297,-1.10961 0.625,-1.625 0.004,-0.008 -0.004,-0.0231 0,-0.0312 0.0437,-0.0888 0.10967,-0.16274 0.15625,-0.25 0.0903,-0.16838 0.18421,-0.33374 0.28125,-0.5 0.0248,-0.0401 0.0371,-0.0853 0.0625,-0.125 0.12356,-0.20499 0.26272,-0.40434 0.40625,-0.59375 0.1714,-0.22602 0.37033,-0.44663 0.5625,-0.65625 0.005,-0.005 -0.005,-0.0259 0,-0.0312 0.5601,-0.60776 1.21942,-1.12152 1.9375,-1.5625 0.2081,-0.12779 0.43627,-0.23221 0.65625,-0.34375 0.3054,-0.15486 0.61063,-0.3163 0.9375,-0.4375 0.3496,-0.12963 0.69033,-0.22456 1.0625,-0.3125 0.28437,-0.0672 0.59129,-0.11686 0.875,-0.15625 0.24223,-0.0336 0.478,-0.0485 0.71875,-0.0625 0.0521,-0.003 0.10446,-0.0292 0.15625,-0.0312 -0.88542,-0.16987 -1.79574,-0.27787 -2.71875,-0.25 z"
       id="path4270"
       inkscape:connector-curvature="0"
       sodipodi:nodetypes="cscsccccsccccccscccscsccsscsscsccccccccccccssscccsscccsccccccccccccccssscscccc" />
    <path
       style="fill:#cc0000;fill-opacity:1;stroke:none"
       d="m 535.52499,615.43979 c 0,0 -7.20512,-0.20723 -16.62741,0 -6.44696,0.14179 -13.266,4.58567 -13.30922,12.37541 -0.0459,8.27059 6.64331,12.35353 17.24078,13.6154 7.14986,1.35124 4.71912,-1.19259 6.90293,0.20052 0,0 -1.05553,-3.10076 -7.76375,-4.00837 -9.80426,-1.3265 -10.68643,-11.09548 -2.96336,-11.15421 9.42643,-0.0717 16.92108,0 16.92108,0 z"
       id="path4113"
       inkscape:connector-curvature="0"
       sodipodi:nodetypes="cssccsscc" />
    <path
       inkscape:connector-curvature="0"
       style="fill:#cc0000;fill-opacity:1;stroke:none"
       d="m 519.11973,562.35497 -0.0937,48.0625 13.71875,0 c -0.15426,-8.77284 -0.54493,-26.86815 -0.28125,-35.4375 19.56716,-0.28358 27.62931,4.67198 27.65625,19.84375 0.0241,13.57147 -8.9131,20.04149 -25.09375,20.5625 l 0,0.0312 -2.1875,0 -13.8125,0 -0.0312,11.03125 c 0,0 4.84521,0.5149 18.3125,0.25 19.28315,-0.37928 35.98321,-12.33675 36.125,-32.1875 0.12255,-17.15686 -12.45056,-32.15625 -35.5625,-32.15625 -14.18549,0 -18.75,0 -18.75,0 z"
       id="path4099" />
    <path
       style="fill:#cc0000;fill-opacity:1;stroke:none"
       d="m 521.18827,646.4548 c 0,0 1.41862,-1.21062 5.91393,-1.48964 4.49531,-0.27903 6.64616,0.45709 6.64616,0.45709 0,0 -1.79816,-1.95763 -3.61101,-5.22165 -1.46044,-2.62949 -2.74152,-6.08115 -2.74152,-6.08115 l -1.59453,6.31544 z"
       id="path4115"
       inkscape:connector-curvature="0"
       sodipodi:nodetypes="cscsccc" />
    <path
       transform="matrix(0.34528565,0,0,0.34528565,559.54543,554.93237)"
       d="m 102.37313,34.738808 c 0,8.379066 -6.792572,15.171641 -15.171638,15.171641 -8.379066,0 -15.171641,-6.792575 -15.171641,-15.171641 0,-8.379066 6.792575,-15.171642 15.171641,-15.171642 8.379066,0 15.171638,6.792576 15.171638,15.171642 z"
       sodipodi:ry="15.171641"
       sodipodi:rx="15.171641"
       sodipodi:cy="34.738808"
       sodipodi:cx="87.201492"
       id="path3841"
       style="fill:#cc0000;fill-opacity:1;stroke:none"
       sodipodi:type="arc" />
    <path
       sodipodi:type="arc"
       style="fill:#ffffff;fill-opacity:1;stroke:none"
       id="path3843"
       sodipodi:cx="22.97015"
       sodipodi:cy="-52.746269"
       sodipodi:rx="27.507463"
       sodipodi:ry="27.507463"
       d="m 50.477613,-52.746269 c 0,15.191952 -12.31551,27.507463 -27.507463,27.507463 -15.1919526,0 -27.5074635,-12.315511 -27.5074635,-27.507463 0,-15.191953 12.3155109,-27.507464 27.5074635,-27.507464 15.191953,0 27.507463,12.315511 27.507463,27.507464 z"
       transform="matrix(0.13813253,0,0,0.13813253,587.92553,572.96427)" />
    <g
       id="g4101"
       transform="matrix(0.79065862,-0.18682323,0.18682323,0.79065862,517.86096,659.30921)"
       style="fill:#cc0000">
      <path
         sodipodi:type="arc"
         style="fill:#cc0000;fill-opacity:1;stroke:none"
         id="path4103"
         sodipodi:cx="87.201492"
         sodipodi:cy="34.738808"
         sodipodi:rx="15.171641"
         sodipodi:ry="15.171641"
         d="m 102.37313,34.738808 c 0,8.379066 -6.792572,15.171641 -15.171638,15.171641 -8.379066,0 -15.171641,-6.792575 -15.171641,-15.171641 0,-8.379066 6.792575,-15.171642 15.171641,-15.171642 8.379066,0 15.171638,6.792576 15.171638,15.171642 z"
         transform="matrix(1.0186916,0,0,1.0186916,-4.7611419,-124.18892)" />
      <path
         transform="matrix(0.40753055,0,0,0.40753055,79.850708,-69.726127)"
         d="m 50.477613,-52.746269 c 0,15.191952 -12.31551,27.507463 -27.507463,27.507463 -15.1919526,0 -27.5074635,-12.315511 -27.5074635,-27.507463 0,-15.191953 12.3155109,-27.507464 27.5074635,-27.507464 15.191953,0 27.507463,12.315511 27.507463,27.507464 z"
         sodipodi:ry="27.507463"
         sodipodi:rx="27.507463"
         sodipodi:cy="-52.746269"
         sodipodi:cx="22.97015"
         id="path4105"
         style="fill:#ffffff;fill-opacity:1;stroke:none"
         sodipodi:type="arc" />
      <path
         inkscape:connector-curvature="0"
         style="opacity:0.53488375;fill:url(#linearGradient4181);fill-opacity:1;stroke:none"
         d="m -358.4375,-73.84375 c -0.84968,0.02566 -1.73423,0.109406 -2.59375,0.3125 -3.42895,0.81022 -6.21786,2.909424 -7.9375,5.6875 -0.005,0.0074 0.005,0.02385 0,0.03125 l 1.46875,7.09375 c -0.7185,-5.467571 2.79919,-10.704654 8.28125,-12 0.73094,-0.172713 1.46493,-0.25943 2.1875,-0.28125 5.058,-0.152743 9.69726,3.258412 10.90625,8.375 0.14311,0.605662 0.21128,1.211473 0.25,1.8125 0.029,0.01544 0.44497,0.251934 0.5,0.28125 -0.0573,-0.490368 -0.13367,-0.976435 -0.25,-1.46875 -1.42166,-6.01662 -6.86477,-10.023362 -12.8125,-9.84375 z"
         id="path4145"
         transform="matrix(1.1978878,0.28304664,-0.28304664,1.1978878,496.06102,85.375329)" />
      <path
         style="fill:url(#linearGradient4177);fill-opacity:1;stroke:none"
         d="m -369.08209,-68.485075 1.84328,9.074627 c 0,0 -4.82089,-3.544776 -10.06716,-4.820895 -5.24627,-1.27612 -23.8209,-0.992538 -23.8209,-0.992538 l -7.94029,-8.649253 30.76865,0.567164 z"
         id="path4164"
         inkscape:connector-curvature="0"
         transform="matrix(1.1978878,0.28304664,-0.28304664,1.1978878,496.06102,85.375329)" />
      <path
         inkscape:connector-curvature="0"
         style="fill:url(#linearGradient4197);fill-opacity:1;stroke:none"
         d="m -347.71875,-68.1875 -17.6875,13.09375 c 2.57104,3.247503 6.85891,4.921659 11.15625,3.90625 5.91877,-1.398535 9.58604,-7.331228 8.1875,-13.25 -0.32742,-1.385677 -0.89023,-2.647489 -1.65625,-3.75 z"
         id="path4184"
         transform="matrix(1.1978878,0.28304664,-0.28304664,1.1978878,496.06102,85.375329)" />
    </g>
    <path
       style="opacity:0.65891472;fill:url(#linearGradient4143);fill-opacity:1;stroke:none"
       d="m 533.80335,645.51821 c 0,0 -1.9551,-2.40628 -8.37183,-5.01307 -6.41673,-2.6068 -9.92588,-1.25327 -12.53268,-4.21098 -2.60679,-2.95771 -3.15823,-4.61203 -3.15823,-4.61203 l 12.48254,-2.20575 15.9917,8.22144 z"
       id="path4135"
       inkscape:connector-curvature="0" />
    <path
       style="fill:url(#linearGradient4244);fill-opacity:1;stroke:none"
       d="m 544.79977,609.81813 -7.6945,3.84188 -28.64179,0.25746 -6.21875,14.75 6.78125,-0.28125 c 0,0 -0.4221,-2.82509 3.40625,-5.09375 3.82836,-2.26865 6.08477,-2.13158 16.875,-2 5.42636,0.0662 10.69717,-0.0245 15.46875,-0.84375 l -1.868,-7.99533 z"
       id="path4199"
       inkscape:connector-curvature="0"
       sodipodi:nodetypes="cccccssccc" />
    <path
       style="opacity:0.32170542;fill:url(#linearGradient4254);fill-opacity:1;stroke:none"
       d="m 540.49613,620.66608 c 0,0 9.01455,0.70913 17.72388,-6.3806 8.93631,-7.27451 9.21642,-17.29851 9.21642,-17.29851 l -11.48508,0.14179 -16.30596,16.58955 z"
       id="path4246"
       inkscape:connector-curvature="0"
       sodipodi:nodetypes="cscccc" />
    <path
       transform="matrix(0.16896832,0,0,0.16896832,586.36901,575.43896)"
       d="m 50.477613,-52.746269 a 27.507463,27.507463 0 1 1 -55.0149265,0 27.507463,27.507463 0 1 1 55.0149265,0 z"
       sodipodi:ry="27.507463"
       sodipodi:rx="27.507463"
       sodipodi:cy="-52.746269"
       sodipodi:cx="22.97015"
       id="path5700"
       style="fill:url(#linearGradient5708);fill-opacity:1;stroke:none;opacity:0.69767442000000002"
       sodipodi:type="arc" />
  </g>
</svg>
