<?xml version="1.0" encoding="UTF-8" standalone="no"?>
<!-- Created with Inkscape (http://www.inkscape.org/) -->

<svg
   xmlns:dc="http://purl.org/dc/elements/1.1/"
   xmlns:cc="http://creativecommons.org/ns#"
   xmlns:rdf="http://www.w3.org/1999/02/22-rdf-syntax-ns#"
   xmlns:svg="http://www.w3.org/2000/svg"
   xmlns="http://www.w3.org/2000/svg"
   xmlns:xlink="http://www.w3.org/1999/xlink"
   xmlns:sodipodi="http://sodipodi.sourceforge.net/DTD/sodipodi-0.dtd"
   xmlns:inkscape="http://www.inkscape.org/namespaces/inkscape"
   width="744.09448819"
   height="1052.3622047"
   id="svg2"
   version="1.1"
   inkscape:version="0.48.1 r9760"
   sodipodi:docname="New document 1">
  <defs
     id="defs4">
    <linearGradient
       inkscape:collect="always"
       id="linearGradient3781">
      <stop
         style="stop-color:#a7422d;stop-opacity:1;"
         offset="0"
         id="stop3783" />
      <stop
         style="stop-color:#a7422d;stop-opacity:0;"
         offset="1"
         id="stop3785" />
    </linearGradient>
    <linearGradient
       id="linearGradient3769">
      <stop
         style="stop-color:#ffffff;stop-opacity:1;"
         offset="0"
         id="stop3771" />
      <stop
         style="stop-color:#ffffff;stop-opacity:0.2;"
         offset="1"
         id="stop3773" />
    </linearGradient>
    <linearGradient
       inkscape:collect="always"
       xlink:href="#linearGradient3781"
       id="linearGradient3787"
       x1="296.42856"
       y1="425.39789"
       x2="296.42859"
       y2="434.68359"
       gradientUnits="userSpaceOnUse" />
    <filter
       inkscape:collect="always"
       id="filter3817"
       x="-0.80732608"
       width="2.6146522"
       y="-0.67862934"
       height="2.3572587">
      <feGaussianBlur
         inkscape:collect="always"
         stdDeviation="2.5279028"
         id="feGaussianBlur3819" />
    </filter>
    <linearGradient
       inkscape:collect="always"
       xlink:href="#linearGradient3781"
       id="linearGradient3823"
       gradientUnits="userSpaceOnUse"
       x1="296.42856"
       y1="425.39789"
       x2="296.31714"
       y2="441.30032" />
    <linearGradient
       inkscape:collect="always"
       xlink:href="#linearGradient3781"
       id="linearGradient3827"
       gradientUnits="userSpaceOnUse"
       x1="296.42856"
       y1="425.39789"
       x2="296.31714"
       y2="441.30032" />
  </defs>
  <sodipodi:namedview
     id="base"
     pagecolor="#ffffff"
     bordercolor="#666666"
     borderopacity="1.0"
     inkscape:pageopacity="0.0"
     inkscape:pageshadow="2"
     inkscape:zoom="15.839192"
     inkscape:cx="284.94541"
     inkscape:cy="634.94845"
     inkscape:document-units="px"
     inkscape:current-layer="layer1"
     showgrid="false"
     inkscape:window-width="1920"
     inkscape:window-height="1032"
     inkscape:window-x="0"
     inkscape:window-y="0"
     inkscape:window-maximized="1" />
  <metadata
     id="metadata7">
    <rdf:RDF>
      <cc:Work
         rdf:about="">
        <dc:format>image/svg+xml</dc:format>
        <dc:type
           rdf:resource="http://purl.org/dc/dcmitype/StillImage" />
        <dc:title></dc:title>
      </cc:Work>
    </rdf:RDF>
  </metadata>
  <g
     inkscape:label="Layer 1"
     inkscape:groupmode="layer"
     id="layer1">
    <rect
       style="fill:#000000;fill-opacity:1;stroke:none"
       id="rect3789"
       width="114.82143"
       height="65.732323"
       x="238.75"
       y="392.18359" />
    <path
       style="font-size:40px;font-style:normal;font-weight:normal;line-height:125%;letter-spacing:0px;word-spacing:0px;fill:#ffffff;fill-opacity:1;stroke:none;font-family:Sans"
       d="m 294.82289,413.76922 1.84278,0 c 1.28475,10e-6 2.1261,0.43031 2.72704,0.96611 0.60093,0.53285 1.0029,1.20526 1.0029,2.342 0,1.14267 -0.42375,1.83982 -1.02764,2.37563 -0.6039,0.5358 -1.42347,0.9458 -2.7023,0.9458 l -1.84278,0 0,-6.62954"
       id="path2990"
       inkscape:connector-curvature="0"
       sodipodi:nodetypes="cscssscc" />
    <path
       sodipodi:type="arc"
       style="fill:url(#linearGradient3787);fill-opacity:1;stroke:none"
       id="path3779"
       sodipodi:cx="296.96429"
       sodipodi:cy="468.25504"
       sodipodi:rx="39.464287"
       sodipodi:ry="39.464287"
       d="m 336.42858,468.25504 a 39.464287,39.464287 0 1 1 -78.92857,0 39.464287,39.464287 0 1 1 78.92857,0 z" />
    <path
       sodipodi:nodetypes="cscssscc"
       inkscape:connector-curvature="0"
       id="path3791"
       d="m 293.623,413.19433 2.48501,0 c 1.73251,1e-5 2.86708,0.58028 3.67746,1.30281 0.81036,0.71856 1.35242,1.62531 1.35242,3.15822 0,1.54091 -0.57143,2.48103 -1.38578,3.20357 -0.81437,0.72254 -1.91957,1.27543 -3.6441,1.27543 l -2.48501,0 0,-8.94003"
       style="font-size:40px;font-style:normal;font-weight:normal;line-height:125%;letter-spacing:0px;word-spacing:0px;fill:#ffffff;fill-opacity:1;stroke:none;filter:url(#filter3817);font-family:Sans"
       transform="matrix(0.74155652,0,0,0.74155652,77.08484,107.36227)" />
    <path
       d="m 336.42858,468.25504 a 39.464287,39.464287 0 1 1 -78.92857,0 39.464287,39.464287 0 1 1 78.92857,0 z"
       sodipodi:ry="39.464287"
       sodipodi:rx="39.464287"
       sodipodi:cy="468.25504"
       sodipodi:cx="296.96429"
       id="path3821"
       style="fill:url(#linearGradient3823);fill-opacity:1;stroke:none"
       sodipodi:type="arc"
       transform="matrix(0.03156682,0.09202895,-0.09202895,0.03156682,309.96881,378.46583)" />
    <path
       transform="matrix(0.02132301,-0.06444735,0.06444735,0.02132301,281.61505,438.12327)"
       sodipodi:type="arc"
       style="fill:url(#linearGradient3827);fill-opacity:1;stroke:none"
       id="path3825"
       sodipodi:cx="296.96429"
       sodipodi:cy="468.25504"
       sodipodi:rx="39.464287"
       sodipodi:ry="39.464287"
       d="m 336.42858,468.25504 a 39.464287,39.464287 0 1 1 -78.92857,0 39.464287,39.464287 0 1 1 78.92857,0 z" />
  </g>
</svg>
